      <!-- Full boho emblem logo (matches hero) -->
      <svg class="nav-logo-icon" viewBox="0 0 220 220" fill="none" xmlns="http://www.w3.org/2000/svg">
        <!-- Arrow 1: head top-left, feather tail bottom-right -->
        <line x1="50" y1="50" x2="170" y2="170" stroke="#c8c0b0" stroke-width="4" stroke-linecap="round"/>
        <polygon points="50,50 66,54 54,66" fill="#c8c0b0"/>
        <line x1="170" y1="170" x2="200" y2="200" stroke="#6a5c42" stroke-width="1.8" stroke-linecap="round"/>
        <path d="M170,170 Q185,163 200,200 Q183,185 170,170Z" fill="#8a7a5a" opacity="0.9"/>
        <path d="M170,170 Q163,185 200,200 Q185,183 170,170Z" fill="#7a6a4a" opacity="0.9"/>
        <path d="M175,175 Q187,169 200,200 Q186,188 175,175Z" fill="#5a4c30" opacity="0.7"/>
        <path d="M175,175 Q169,187 200,200 Q188,186 175,175Z" fill="#5a4c30" opacity="0.7"/>
        <line x1="173" y1="171" x2="181" y2="165" stroke="#4a3c22" stroke-width="0.9" opacity="0.8"/>
        <line x1="177" y1="175" x2="185" y2="169" stroke="#4a3c22" stroke-width="0.9" opacity="0.8"/>
        <line x1="181" y1="179" x2="189" y2="173" stroke="#4a3c22" stroke-width="0.9" opacity="0.8"/>
        <line x1="185" y1="183" x2="192" y2="177" stroke="#4a3c22" stroke-width="0.9" opacity="0.8"/>
        <line x1="189" y1="187" x2="195" y2="182" stroke="#4a3c22" stroke-width="0.9" opacity="0.8"/>
        <line x1="171" y1="173" x2="165" y2="181" stroke="#4a3c22" stroke-width="0.9" opacity="0.8"/>
        <line x1="175" y1="177" x2="169" y2="185" stroke="#4a3c22" stroke-width="0.9" opacity="0.8"/>
        <line x1="179" y1="181" x2="173" y2="189" stroke="#4a3c22" stroke-width="0.9" opacity="0.8"/>
        <line x1="183" y1="185" x2="177" y2="192" stroke="#4a3c22" stroke-width="0.9" opacity="0.8"/>
        <line x1="187" y1="189" x2="182" y2="195" stroke="#4a3c22" stroke-width="0.9" opacity="0.8"/>
        <line x1="171" y1="171" x2="198" y2="198" stroke="#c8b890" stroke-width="0.7" opacity="0.6" stroke-linecap="round"/>
        <!-- Arrow 2: head top-right, feather tail bottom-left -->
        <line x1="170" y1="50" x2="50" y2="170" stroke="#9a9282" stroke-width="4" stroke-linecap="round"/>
        <polygon points="170,50 154,54 166,66" fill="#9a9282"/>
        <line x1="50" y1="170" x2="20" y2="200" stroke="#5a5040" stroke-width="1.8" stroke-linecap="round"/>
        <path d="M50,170 Q35,163 20,200 Q37,185 50,170Z" fill="#7a7060" opacity="0.9"/>
        <path d="M50,170 Q57,185 20,200 Q35,183 50,170Z" fill="#6a6050" opacity="0.9"/>
        <path d="M45,175 Q33,169 20,200 Q34,188 45,175Z" fill="#4a4030" opacity="0.7"/>
        <path d="M45,175 Q51,187 20,200 Q32,186 45,175Z" fill="#4a4030" opacity="0.7"/>
        <line x1="47" y1="171" x2="39" y2="165" stroke="#3a3020" stroke-width="0.9" opacity="0.8"/>
        <line x1="43" y1="175" x2="35" y2="169" stroke="#3a3020" stroke-width="0.9" opacity="0.8"/>
        <line x1="39" y1="179" x2="31" y2="173" stroke="#3a3020" stroke-width="0.9" opacity="0.8"/>
        <line x1="35" y1="183" x2="28" y2="177" stroke="#3a3020" stroke-width="0.9" opacity="0.8"/>
        <line x1="31" y1="187" x2="25" y2="182" stroke="#3a3020" stroke-width="0.9" opacity="0.8"/>
        <line x1="49" y1="173" x2="55" y2="181" stroke="#3a3020" stroke-width="0.9" opacity="0.8"/>
        <line x1="45" y1="177" x2="51" y2="185" stroke="#3a3020" stroke-width="0.9" opacity="0.8"/>
        <line x1="41" y1="181" x2="47" y2="189" stroke="#3a3020" stroke-width="0.9" opacity="0.8"/>
        <line x1="37" y1="185" x2="43" y2="192" stroke="#3a3020" stroke-width="0.9" opacity="0.8"/>
        <line x1="33" y1="189" x2="38" y2="195" stroke="#3a3020" stroke-width="0.9" opacity="0.8"/>
        <line x1="49" y1="171" x2="22" y2="198" stroke="#b0a880" stroke-width="0.7" opacity="0.6" stroke-linecap="round"/>
        <!-- Feather — drawn BEFORE flowers so cluster paints over it -->
        <g transform="translate(136,114) rotate(170)">
          <line x1="-44" y1="0" x2="44" y2="0" stroke="#c8a0a8" stroke-width="1" stroke-linecap="round"/>
          <path d="M-42,0 Q-28,-6 -8,-7 Q8,-5 18,0Z" fill="#f0d8dc" opacity="0.92"/>
          <path d="M-42,0 Q-28,6 -8,7 Q8,5 18,0Z" fill="#f0d8dc" opacity="0.92"/>
          <line x1="-35" y1="-6" x2="-35" y2="6" stroke="#2a2020" stroke-width="1.6" opacity="0.88" stroke-linecap="round"/>
          <line x1="-27" y1="-7" x2="-27" y2="7" stroke="#2a2020" stroke-width="1.6" opacity="0.88" stroke-linecap="round"/>
          <line x1="-19" y1="-7" x2="-19" y2="7" stroke="#2a2020" stroke-width="1.6" opacity="0.88" stroke-linecap="round"/>
          <line x1="-11" y1="-7" x2="-11" y2="7" stroke="#2a2020" stroke-width="1.6" opacity="0.85" stroke-linecap="round"/>
          <line x1="-3" y1="-6" x2="-3" y2="6" stroke="#2a2020" stroke-width="1.4" opacity="0.75" stroke-linecap="round"/>
          <line x1="5" y1="-5" x2="5" y2="5" stroke="#2a2020" stroke-width="1.2" opacity="0.6" stroke-linecap="round"/>
        </g>
        <!-- Large mauve bloom -->
        <g transform="translate(110,108)">
          <ellipse cx="0" cy="-13" rx="5" ry="8" fill="#d4aec8" opacity="0.9" transform="rotate(0)"/>
          <ellipse cx="0" cy="-13" rx="5" ry="8" fill="#c49ab8" opacity="0.9" transform="rotate(60)"/>
          <ellipse cx="0" cy="-13" rx="5" ry="8" fill="#d4aec8" opacity="0.9" transform="rotate(120)"/>
          <ellipse cx="0" cy="-13" rx="5" ry="8" fill="#c49ab8" opacity="0.9" transform="rotate(180)"/>
          <ellipse cx="0" cy="-13" rx="5" ry="8" fill="#d4aec8" opacity="0.9" transform="rotate(240)"/>
          <ellipse cx="0" cy="-13" rx="5" ry="8" fill="#c49ab8" opacity="0.9" transform="rotate(300)"/>
          <circle cx="0" cy="0" r="6" fill="#b08898"/>
          <circle cx="0" cy="0" r="3" fill="#906878"/>
          <circle cx="0" cy="-4" r="1" fill="#e8c0d0" opacity="0.9"/>
          <circle cx="3.5" cy="2" r="1" fill="#e8c0d0" opacity="0.9"/>
          <circle cx="-3.5" cy="2" r="1" fill="#e8c0d0" opacity="0.9"/>
        </g>
        <!-- Rose bloom -->
        <g transform="translate(92,118)">
          <ellipse cx="0" cy="-9" rx="4" ry="6" fill="#e8906a" opacity="0.9" transform="rotate(0)"/>
          <ellipse cx="0" cy="-9" rx="4" ry="6" fill="#d4806a" opacity="0.9" transform="rotate(72)"/>
          <ellipse cx="0" cy="-9" rx="4" ry="6" fill="#e8906a" opacity="0.9" transform="rotate(144)"/>
          <ellipse cx="0" cy="-9" rx="4" ry="6" fill="#d4806a" opacity="0.9" transform="rotate(216)"/>
          <ellipse cx="0" cy="-9" rx="4" ry="6" fill="#e8906a" opacity="0.9" transform="rotate(288)"/>
          <circle cx="0" cy="0" r="4.5" fill="#c06858"/>
          <circle cx="0" cy="0" r="2" fill="#a05040"/>
          <circle cx="0" cy="-2" r="0.8" fill="#f0b090" opacity="0.9"/>
          <circle cx="1.7" cy="1" r="0.8" fill="#f0b090" opacity="0.9"/>
          <circle cx="-1.7" cy="1" r="0.8" fill="#f0b090" opacity="0.9"/>
        </g>
        <!-- Small peach bud -->
        <g transform="translate(128,100)">
          <ellipse cx="0" cy="-5.5" rx="3" ry="4" fill="#f0b898" opacity="0.9" transform="rotate(0)"/>
          <ellipse cx="0" cy="-5.5" rx="3" ry="4" fill="#e8a888" opacity="0.9" transform="rotate(90)"/>
          <ellipse cx="0" cy="-5.5" rx="3" ry="4" fill="#f0b898" opacity="0.9" transform="rotate(180)"/>
          <ellipse cx="0" cy="-5.5" rx="3" ry="4" fill="#e8a888" opacity="0.9" transform="rotate(270)"/>
          <circle cx="0" cy="0" r="3" fill="#d89070"/>
        </g>
        <!-- Small mauve bud -->
        <g transform="translate(120,125)">
          <ellipse cx="0" cy="-5" rx="2.5" ry="3.5" fill="#deb0b8" opacity="0.9" transform="rotate(0)"/>
          <ellipse cx="0" cy="-5" rx="2.5" ry="3.5" fill="#deb0b8" opacity="0.9" transform="rotate(90)"/>
          <ellipse cx="0" cy="-5" rx="2.5" ry="3.5" fill="#deb0b8" opacity="0.9" transform="rotate(180)"/>
          <ellipse cx="0" cy="-5" rx="2.5" ry="3.5" fill="#deb0b8" opacity="0.9" transform="rotate(270)"/>
          <circle cx="0" cy="0" r="2.5" fill="#b08898"/>
        </g>
        <!-- Sprig 1: top -->
        <path d="M108,94 Q104,76 100,62" stroke="#c07060" stroke-width="1.4" fill="none" stroke-linecap="round"/>
        <path d="M104,76 Q100,70 96,66" stroke="#c07060" stroke-width="1.2" fill="none" stroke-linecap="round"/>
        <circle cx="100" cy="62" r="2.8" fill="#d4706a"/>
        <circle cx="96" cy="66" r="2.2" fill="#c86060"/>
        <circle cx="103" cy="59" r="2" fill="#d4706a"/>
        <circle cx="97" cy="57" r="1.8" fill="#c86060"/>
        <circle cx="96" cy="66" r="1.8" fill="#be5858"/>
        <!-- Sprig 2: left -->
        <path d="M90,112 Q74,104 60,94" stroke="#c07060" stroke-width="1.4" fill="none" stroke-linecap="round"/>
        <path d="M74,104 Q68,98 64,92" stroke="#c07060" stroke-width="1.2" fill="none" stroke-linecap="round"/>
        <circle cx="60" cy="94" r="2.8" fill="#d4706a"/>
        <circle cx="64" cy="92" r="2.2" fill="#c86060"/>
        <circle cx="57" cy="90" r="2" fill="#d4706a"/>
        <circle cx="62" cy="88" r="1.8" fill="#c86060"/>
        <circle cx="56" cy="95" r="1.8" fill="#be5858"/>
        <!-- Sprig 3: right -->
        <path d="M122,100 Q132,90 142,82" stroke="#c07060" stroke-width="1.4" fill="none" stroke-linecap="round"/>
        <path d="M132,90 Q138,84 142,80" stroke="#c07060" stroke-width="1.2" fill="none" stroke-linecap="round"/>
        <circle cx="142" cy="82" r="2.8" fill="#d4706a"/>
        <circle cx="142" cy="80" r="2.2" fill="#c86060"/>
        <circle cx="145" cy="78" r="2" fill="#d4706a"/>
        <circle cx="139" cy="77" r="1.8" fill="#c86060"/>
        <circle cx="144" cy="84" r="1.8" fill="#be5858"/>
      </svg>