<svg width="220" height="220" viewBox="0 0 220 220" fill="none" xmlns="http://www.w3.org/2000/svg">
<path d="M50 50L170 170" stroke="#C8C0B0" stroke-width="4" stroke-linecap="round"/>
<path d="M50 50L66 54L54 66L50 50Z" fill="#C8C0B0"/>
<path d="M170 170L200 200" stroke="#6A5C42" stroke-width="1.8" stroke-linecap="round"/>
<path opacity="0.9" d="M170 170C180 165.333 190 175.333 200 200C188.667 190 178.667 180 170 170Z" fill="#8A7A5A"/>
<path opacity="0.9" d="M170 170C165.333 180 175.333 190 200 200C190 188.667 180 178.667 170 170Z" fill="#7A6A4A"/>
<path opacity="0.7" d="M175 175C183 171 191.333 179.333 200 200C190.667 192 182.333 183.667 175 175Z" fill="#5A4C30"/>
<path opacity="0.7" d="M175 175C171 183 179.333 191.333 200 200C192 190.667 183.667 182.333 175 175Z" fill="#5A4C30"/>
<path opacity="0.8" d="M173 171L181 165" stroke="#4A3C22" stroke-width="0.9"/>
<path opacity="0.8" d="M177 175L185 169" stroke="#4A3C22" stroke-width="0.9"/>
<path opacity="0.8" d="M181 179L189 173" stroke="#4A3C22" stroke-width="0.9"/>
<path opacity="0.8" d="M185 183L192 177" stroke="#4A3C22" stroke-width="0.9"/>
<path opacity="0.8" d="M189 187L195 182" stroke="#4A3C22" stroke-width="0.9"/>
<path opacity="0.8" d="M171 173L165 181" stroke="#4A3C22" stroke-width="0.9"/>
<path opacity="0.8" d="M175 177L169 185" stroke="#4A3C22" stroke-width="0.9"/>
<path opacity="0.8" d="M179 181L173 189" stroke="#4A3C22" stroke-width="0.9"/>
<path opacity="0.8" d="M183 185L177 192" stroke="#4A3C22" stroke-width="0.9"/>
<path opacity="0.8" d="M187 189L182 195" stroke="#4A3C22" stroke-width="0.9"/>
<path opacity="0.6" d="M171 171L198 198" stroke="#C8B890" stroke-width="0.7" stroke-linecap="round"/>
<path d="M170 50L50 170" stroke="#9A9282" stroke-width="4" stroke-linecap="round"/>
<path d="M170 50L154 54L166 66L170 50Z" fill="#9A9282"/>
<path d="M50 170L20 200" stroke="#5A5040" stroke-width="1.8" stroke-linecap="round"/>
<path opacity="0.9" d="M50 170C40 165.333 30 175.333 20 200C31.3333 190 41.3333 180 50 170Z" fill="#7A7060"/>
<path opacity="0.9" d="M50 170C54.6667 180 44.6667 190 20 200C30 188.667 40 178.667 50 170Z" fill="#6A6050"/>
<path opacity="0.7" d="M45 175C37 171 28.6667 179.333 20 200C29.3333 192 37.6667 183.667 45 175Z" fill="#4A4030"/>
<path opacity="0.7" d="M45 175C49 183 40.6667 191.333 20 200C28 190.667 36.3333 182.333 45 175Z" fill="#4A4030"/>
<path opacity="0.8" d="M47 171L39 165" stroke="#3A3020" stroke-width="0.9"/>
<path opacity="0.8" d="M43 175L35 169" stroke="#3A3020" stroke-width="0.9"/>
<path opacity="0.8" d="M39 179L31 173" stroke="#3A3020" stroke-width="0.9"/>
<path opacity="0.8" d="M35 183L28 177" stroke="#3A3020" stroke-width="0.9"/>
<path opacity="0.8" d="M31 187L25 182" stroke="#3A3020" stroke-width="0.9"/>
<path opacity="0.8" d="M49 173L55 181" stroke="#3A3020" stroke-width="0.9"/>
<path opacity="0.8" d="M45 177L51 185" stroke="#3A3020" stroke-width="0.9"/>
<path opacity="0.8" d="M41 181L47 189" stroke="#3A3020" stroke-width="0.9"/>
<path opacity="0.8" d="M37 185L43 192" stroke="#3A3020" stroke-width="0.9"/>
<path opacity="0.8" d="M33 189L38 195" stroke="#3A3020" stroke-width="0.9"/>
<path opacity="0.6" d="M49 171L22 198" stroke="#B0A880" stroke-width="0.7" stroke-linecap="round"/>
<path d="M179.169 117.26L110 108" stroke="#C8A0A8" stroke-linecap="round"/>
<path opacity="0.92" d="M177.186 117.002C167.416 119.769 155.876 120.625 142.568 119.571C132.162 116.877 123.867 113.449 117.684 109.286L177.186 117.002Z" fill="#F0D8DC"/>
<path opacity="0.92" d="M177.186 117.002C168.445 111.835 157.506 108.064 144.369 105.688C133.619 105.638 124.724 106.837 117.684 109.286L177.186 117.002Z" fill="#F0D8DC"/>
<path opacity="0.88" d="M169.473 122.052L171.016 110.152" stroke="#2A2020" stroke-width="1.6" stroke-linecap="round"/>
<path opacity="0.88" d="M161.41 122.015L163.211 108.131" stroke="#2A2020" stroke-width="1.6" stroke-linecap="round"/>
<path opacity="0.88" d="M153.477 120.986L155.277 107.102" stroke="#2A2020" stroke-width="1.6" stroke-linecap="round"/>
<path opacity="0.85" d="M145.543 119.957L147.344 106.074" stroke="#2A2020" stroke-width="1.6" stroke-linecap="round"/>
<path opacity="0.75" d="M137.738 117.937L139.282 106.036" stroke="#2A2020" stroke-width="1.4" stroke-linecap="round"/>
<path opacity="0.6" d="M129.933 115.916L131.219 105.999" stroke="#2A2020" stroke-width="1.2" stroke-linecap="round"/>
<path d="M110.679 102.9C113.179 90.4004 119.179 90.4004 115.679 79.4004" stroke="#C07060" stroke-width="1.4" stroke-linecap="round"/>
<path d="M115.179 90.9004C114.38 86.5704 110.679 80.9004 106.896 80.2961" stroke="#C07060" stroke-width="1.2" stroke-linecap="round"/>
<path d="M107.269 77.4242C108.147 77.8902 109.236 77.5561 109.702 76.6779C110.168 75.7998 109.834 74.7102 108.956 74.2442C108.078 73.7782 106.988 74.1123 106.522 74.9904C106.056 75.8685 106.39 76.9582 107.269 77.4242Z" fill="#C86060"/>
<path d="M111.269 79.4242C112.147 79.8902 113.236 79.5561 113.702 78.678C114.168 77.7998 113.834 76.7102 112.956 76.2442C112.078 75.7782 110.988 76.1123 110.522 76.9904C110.056 77.8685 110.39 78.9582 111.269 79.4242Z" fill="#BE5858"/>
<path d="M114.152 79.6596C115.518 80.3845 117.213 79.8648 117.938 78.4988C118.663 77.1328 118.143 75.4379 116.777 74.713C115.411 73.9881 113.716 74.5078 112.991 75.8737C112.266 77.2397 112.786 78.9347 114.152 79.6596Z" fill="#D4706A"/>
<path d="M101.445 81.8713C102.421 82.389 103.632 82.0178 104.149 81.0421C104.667 80.0664 104.296 78.8557 103.32 78.338C102.345 77.8202 101.134 78.1914 100.616 79.1671C100.098 80.1428 100.47 81.3535 101.445 81.8713Z" fill="#D4706A"/>
<path d="M104.622 81.3183C105.695 81.8879 107.027 81.4796 107.597 80.4063C108.166 79.333 107.758 78.0013 106.684 77.4317C105.611 76.8622 104.279 77.2705 103.71 78.3438C103.14 79.417 103.549 80.7488 104.622 81.3183Z" fill="#C86060"/>
<path opacity="0.9" d="M110 103C112.761 103 115 99.4183 115 95C115 90.5817 112.761 87 110 87C107.239 87 105 90.5817 105 95C105 99.4183 107.239 103 110 103Z" fill="#D4AEC8"/>
<path opacity="0.9" d="M114.33 105.5C115.711 107.891 119.932 108.039 123.758 105.83C127.585 103.621 129.567 99.8915 128.187 97.5C126.806 95.1085 122.585 94.9607 118.758 97.1699C114.932 99.379 112.949 103.109 114.33 105.5Z" fill="#C49AB8"/>
<path opacity="0.9" d="M114.33 110.5C112.949 112.891 114.932 116.621 118.758 118.83C122.585 121.039 126.806 120.891 128.187 118.5C129.567 116.109 127.585 112.379 123.758 110.17C119.932 107.961 115.711 108.109 114.33 110.5Z" fill="#D4AEC8"/>
<path opacity="0.9" d="M110 113C107.239 113 105 116.582 105 121C105 125.418 107.239 129 110 129C112.761 129 115 125.418 115 121C115 116.582 112.761 113 110 113Z" fill="#C49AB8"/>
<path opacity="0.9" d="M105.67 110.5C104.289 108.109 100.068 107.961 96.2417 110.17C92.4153 112.379 90.4328 116.109 91.8135 118.5C93.1942 120.891 97.4153 121.039 101.242 118.83C105.068 116.621 107.051 112.891 105.67 110.5Z" fill="#D4AEC8"/>
<path opacity="0.9" d="M105.67 105.5C107.051 103.109 105.068 99.379 101.242 97.1699C97.4153 94.9607 93.1942 95.1085 91.8135 97.5C90.4328 99.8915 92.4153 103.621 96.2417 105.83C100.068 108.039 104.289 107.891 105.67 105.5Z" fill="#C49AB8"/>
<path d="M110 114C113.314 114 116 111.314 116 108C116 104.686 113.314 102 110 102C106.686 102 104 104.686 104 108C104 111.314 106.686 114 110 114Z" fill="#B08898"/>
<path d="M110 111C111.657 111 113 109.657 113 108C113 106.343 111.657 105 110 105C108.343 105 107 106.343 107 108C107 109.657 108.343 111 110 111Z" fill="#906878"/>
<path opacity="0.9" d="M110 105C110.552 105 111 104.552 111 104C111 103.448 110.552 103 110 103C109.448 103 109 103.448 109 104C109 104.552 109.448 105 110 105Z" fill="#E8C0D0"/>
<path opacity="0.9" d="M113.5 111C114.052 111 114.5 110.552 114.5 110C114.5 109.448 114.052 109 113.5 109C112.948 109 112.5 109.448 112.5 110C112.5 110.552 112.948 111 113.5 111Z" fill="#E8C0D0"/>
<path opacity="0.9" d="M106.5 111C107.052 111 107.5 110.552 107.5 110C107.5 109.448 107.052 109 106.5 109C105.948 109 105.5 109.448 105.5 110C105.5 110.552 105.948 111 106.5 111Z" fill="#E8C0D0"/>
<path d="M92.5 118.5C81.8333 113.167 79.3333 111.667 70 105" stroke="#C07060" stroke-width="1.4" stroke-linecap="round"/>
<path d="M84.5 114.5C80.5 110.5 79.1667 106.5 76.5 102.5" stroke="#C07060" stroke-width="1.2" stroke-linecap="round"/>
<path d="M65.8 104.6C66.7941 104.6 67.6 103.794 67.6 102.8C67.6 101.806 66.7941 101 65.8 101C64.8059 101 64 101.806 64 102.8C64 103.794 64.8059 104.6 65.8 104.6Z" fill="#BE5858"/>
<path d="M68.8 106.6C70.3464 106.6 71.6 105.346 71.6 103.8C71.6 102.254 70.3464 101 68.8 101C67.2536 101 66 102.254 66 103.8C66 105.346 67.2536 106.6 68.8 106.6Z" fill="#D4706A"/>
<path d="M77 100C78.1046 100 79 99.1046 79 98C79 96.8954 78.1046 96 77 96C75.8954 96 75 96.8954 75 98C75 99.1046 75.8954 100 77 100Z" fill="#D4706A"/>
<path d="M76.2 103.4C77.415 103.4 78.4 102.415 78.4 101.2C78.4 99.985 77.415 99 76.2 99C74.985 99 74 99.985 74 101.2C74 102.415 74.985 103.4 76.2 103.4Z" fill="#C86060"/>
<path d="M70.8 100.6C71.7941 100.6 72.6 99.7941 72.6 98.8C72.6 97.8059 71.7941 97 70.8 97C69.8059 97 69 97.8059 69 98.8C69 99.7941 69.8059 100.6 70.8 100.6Z" fill="#C86060"/>
<path opacity="0.9" d="M92 115C94.2091 115 96 112.314 96 109C96 105.686 94.2091 103 92 103C89.7909 103 88 105.686 88 109C88 112.314 89.7909 115 92 115Z" fill="#E8906A"/>
<path opacity="0.9" d="M94.8532 117.073C95.5358 119.174 98.6441 120.047 101.796 119.023C104.947 117.999 106.949 115.466 106.266 113.365C105.583 111.264 102.475 110.391 99.3234 111.415C96.1719 112.439 94.1705 114.972 94.8532 117.073Z" fill="#D4806A"/>
<path opacity="0.9" d="M93.7634 120.427C91.9761 121.726 92.1063 124.951 94.054 127.632C96.0018 130.313 99.0295 131.434 100.817 130.135C102.604 128.837 102.474 125.611 100.526 122.93C98.5784 120.249 95.5506 119.129 93.7634 120.427Z" fill="#E8906A"/>
<path opacity="0.9" d="M90.2366 120.427C88.4494 119.129 85.4216 120.249 83.4739 122.93C81.5261 125.611 81.396 128.837 83.1832 130.135C84.9705 131.434 87.9983 130.313 89.946 127.632C91.8937 124.951 92.0239 121.726 90.2366 120.427Z" fill="#D4806A"/>
<path opacity="0.9" d="M89.1468 117.073C89.8295 114.972 87.8281 112.439 84.6766 111.415C81.525 110.391 78.4168 111.264 77.7342 113.365C77.0515 115.466 79.0529 117.999 82.2044 119.023C85.3559 120.047 88.4642 119.174 89.1468 117.073Z" fill="#E8906A"/>
<path d="M92 122.5C94.4853 122.5 96.5 120.485 96.5 118C96.5 115.515 94.4853 113.5 92 113.5C89.5147 113.5 87.5 115.515 87.5 118C87.5 120.485 89.5147 122.5 92 122.5Z" fill="#C06858"/>
<path d="M92 120C93.1046 120 94 119.105 94 118C94 116.895 93.1046 116 92 116C90.8954 116 90 116.895 90 118C90 119.105 90.8954 120 92 120Z" fill="#A05040"/>
<path opacity="0.9" d="M92 116.8C92.4418 116.8 92.8 116.442 92.8 116C92.8 115.558 92.4418 115.2 92 115.2C91.5582 115.2 91.2 115.558 91.2 116C91.2 116.442 91.5582 116.8 92 116.8Z" fill="#F0B090"/>
<path opacity="0.9" d="M93.7 119.8C94.1418 119.8 94.5 119.442 94.5 119C94.5 118.558 94.1418 118.2 93.7 118.2C93.2582 118.2 92.9 118.558 92.9 119C92.9 119.442 93.2582 119.8 93.7 119.8Z" fill="#F0B090"/>
<path opacity="0.9" d="M90.3 119.8C90.7418 119.8 91.1 119.442 91.1 119C91.1 118.558 90.7418 118.2 90.3 118.2C89.8582 118.2 89.5 118.558 89.5 119C89.5 119.442 89.8582 119.8 90.3 119.8Z" fill="#F0B090"/>
<path d="M128 100C136.8 96.6162 140.5 98.5 146.087 93.1242" stroke="#C07060" stroke-width="1.4" stroke-linecap="round"/>
<path d="M147.3 87.6C148.294 87.6 149.1 86.7941 149.1 85.8C149.1 84.8059 148.294 84 147.3 84C146.306 84 145.5 84.8059 145.5 85.8C145.5 86.7941 146.306 87.6 147.3 87.6Z" fill="#BE5858"/>
<path d="M137 97.5C141 93.5 141.5 94.5 142.5 90" stroke="#C07060" stroke-width="1.2" stroke-linecap="round"/>
<path d="M150.3 91.6C151.294 91.6 152.1 90.7941 152.1 89.8C152.1 88.8059 151.294 88 150.3 88C149.306 88 148.5 88.8059 148.5 89.8C148.5 90.7941 149.306 91.6 150.3 91.6Z" fill="#C86060"/>
<path d="M147.3 94.6C148.846 94.6 150.1 93.3464 150.1 91.8C150.1 90.2536 148.846 89 147.3 89C145.754 89 144.5 90.2536 144.5 91.8C144.5 93.3464 145.754 94.6 147.3 94.6Z" fill="#D4706A"/>
<path d="M139.5 89C140.605 89 141.5 88.1046 141.5 87C141.5 85.8954 140.605 85 139.5 85C138.395 85 137.5 85.8954 137.5 87C137.5 88.1046 138.395 89 139.5 89Z" fill="#D4706A"/>
<path d="M142.7 90.4C143.915 90.4 144.9 89.415 144.9 88.2C144.9 86.985 143.915 86 142.7 86C141.485 86 140.5 86.985 140.5 88.2C140.5 89.415 141.485 90.4 142.7 90.4Z" fill="#C86060"/>
<path opacity="0.9" d="M128 98.5C129.657 98.5 131 96.7091 131 94.5C131 92.2909 129.657 90.5 128 90.5C126.343 90.5 125 92.2909 125 94.5C125 96.7091 126.343 98.5 128 98.5Z" fill="#F0B898"/>
<path opacity="0.9" d="M129.5 100C129.5 101.657 131.291 103 133.5 103C135.709 103 137.5 101.657 137.5 100C137.5 98.3431 135.709 97 133.5 97C131.291 97 129.5 98.3431 129.5 100Z" fill="#E8A888"/>
<path opacity="0.9" d="M128 101.5C126.343 101.5 125 103.291 125 105.5C125 107.709 126.343 109.5 128 109.5C129.657 109.5 131 107.709 131 105.5C131 103.291 129.657 101.5 128 101.5Z" fill="#F0B898"/>
<path opacity="0.9" d="M126.5 100C126.5 98.3431 124.709 97 122.5 97C120.291 97 118.5 98.3431 118.5 100C118.5 101.657 120.291 103 122.5 103C124.709 103 126.5 101.657 126.5 100Z" fill="#E8A888"/>
<path d="M128 103C129.657 103 131 101.657 131 100C131 98.3431 129.657 97 128 97C126.343 97 125 98.3431 125 100C125 101.657 126.343 103 128 103Z" fill="#D89070"/>
<path opacity="0.9" d="M120 123.5C121.381 123.5 122.5 121.933 122.5 120C122.5 118.067 121.381 116.5 120 116.5C118.619 116.5 117.5 118.067 117.5 120C117.5 121.933 118.619 123.5 120 123.5Z" fill="#DEB0B8"/>
<path opacity="0.9" d="M121.5 125C121.5 126.381 123.067 127.5 125 127.5C126.933 127.5 128.5 126.381 128.5 125C128.5 123.619 126.933 122.5 125 122.5C123.067 122.5 121.5 123.619 121.5 125Z" fill="#DEB0B8"/>
<path opacity="0.9" d="M120 126.5C118.619 126.5 117.5 128.067 117.5 130C117.5 131.933 118.619 133.5 120 133.5C121.381 133.5 122.5 131.933 122.5 130C122.5 128.067 121.381 126.5 120 126.5Z" fill="#DEB0B8"/>
<path opacity="0.9" d="M118.5 125C118.5 123.619 116.933 122.5 115 122.5C113.067 122.5 111.5 123.619 111.5 125C111.5 126.381 113.067 127.5 115 127.5C116.933 127.5 118.5 126.381 118.5 125Z" fill="#DEB0B8"/>
<path d="M120 127.5C121.381 127.5 122.5 126.381 122.5 125C122.5 123.619 121.381 122.5 120 122.5C118.619 122.5 117.5 123.619 117.5 125C117.5 126.381 118.619 127.5 120 127.5Z" fill="#B08898"/>
</svg>
